<?xml version="1.0" encoding="UTF-8" standalone="no"?>
<svg
   xmlns:dc="http://purl.org/dc/elements/1.1/"
   xmlns:cc="http://creativecommons.org/ns#"
   xmlns:rdf="http://www.w3.org/1999/02/22-rdf-syntax-ns#"
   xmlns:svg="http://www.w3.org/2000/svg"
   xmlns="http://www.w3.org/2000/svg"
   xmlns:sodipodi="http://sodipodi.sourceforge.net/DTD/sodipodi-0.dtd"
   xmlns:inkscape="http://www.inkscape.org/namespaces/inkscape"
   width="185.38615mm"
   height="38.922092mm"
   viewBox="0 0 185.38615 38.922092"
   version="1.1"
   id="svg8"
   inkscape:version="1.0.2 (1.0.2+r75+1)"
   sodipodi:docname="logo.svg">
  <defs
     id="defs2" />
  <sodipodi:namedview
     id="base"
     pagecolor="#ffffff"
     bordercolor="#666666"
     borderopacity="1.0"
     inkscape:pageopacity="0.0"
     inkscape:pageshadow="2"
     inkscape:zoom="0.49497475"
     inkscape:cx="537.74363"
     inkscape:cy="403.60976"
     inkscape:document-units="pt"
     inkscape:current-layer="layer1"
     inkscape:document-rotation="0"
     showgrid="false"
     fit-margin-top="0"
     fit-margin-left="0"
     fit-margin-right="0"
     fit-margin-bottom="0"
     inkscape:window-width="1366"
     inkscape:window-height="737"
     inkscape:window-x="0"
     inkscape:window-y="0"
     inkscape:window-maximized="0" />
  <metadata
     id="metadata5">
    <rdf:RDF>
      <cc:Work
         rdf:about="">
        <dc:format>image/svg+xml</dc:format>
        <dc:type
           rdf:resource="http://purl.org/dc/dcmitype/StillImage" />
        <dc:title />
      </cc:Work>
    </rdf:RDF>
  </metadata>
  <g
     inkscape:label="Layer 1"
     inkscape:groupmode="layer"
     id="layer1"
     transform="translate(-7.7591033,-62.828756)">
    <path
       d="m 47.161194,90.032477 c 0.100593,-0.42633 0.164021,-0.85935 0.164021,-1.30078 0,-2.56609 -1.706483,-4.71714 -4.035967,-5.44412 0.498148,-1.00213 0.911373,-2.25177 0.911373,-3.7659 0,-3.90472 -3.359505,-6.93367 -6.249192,-6.93367 -0.575678,0 -1.041551,0.46587 -1.041551,1.04155 0,2.07289 -1.051706,3.12459 -3.124594,3.12459 -3.298773,0 -6.078585,3.12792 -6.222241,6.88956 -1.861106,0.94691 -3.151545,2.86029 -3.151545,5.08805 0,0.44143 0.06343,0.87446 0.164024,1.30078 -1.947975,1.05929 -3.288555,3.0999 -3.288555,5.46912 0,3.446 2.803193,6.249193 6.249191,6.249193 h 16.664463 c 3.445998,0 6.249193,-2.803193 6.249193,-6.249193 0,-2.36922 -1.340582,-4.40971 -3.28862,-5.46918 z m -2.960511,9.63533 H 27.536158 c -2.29771,0 -4.166149,-1.86844 -4.166149,-4.16615 0,-2.29771 1.868439,-4.16615 4.166149,-4.16615 h 3.124594 c 0.575679,0 1.041551,-0.46581 1.041551,-1.04155 0,-0.57568 -0.46581,-1.04155 -1.041551,-1.04155 h -3.124594 c -0.334631,0 -0.65666,0.0479 -0.977185,0.0988 -0.03598,-0.20458 -0.06431,-0.41041 -0.06431,-0.61956 0,-2.00983 1.635534,-3.64537 3.64537,-3.64537 H 31.7023 c 0.575682,0 1.041551,-0.46581 1.041551,-1.04155 0,-0.57568 -0.465806,-1.04155 -1.041551,-1.04155 h -1.56233 c -0.151423,0 -0.293698,0.0332 -0.442178,0.0447 0.36772,-2.32629 2.11601,-4.21084 4.087551,-4.21084 2.785894,0 4.657402,-1.50128 5.103907,-3.99629 1.623314,0.5696 3.228325,2.49401 3.228325,4.68078 0,1.48298 -0.517453,2.65365 -1.04193,3.4816 h -1.041176 c -0.575678,0 -1.041551,0.4658 -1.041551,1.04155 0,0.57568 0.465873,1.04155 1.041551,1.04155 h 1.562264 c 2.009843,0 3.645373,1.63554 3.645373,3.64537 0,0.20915 -0.02832,0.41498 -0.0643,0.61956 -0.320525,-0.0508 -0.642558,-0.0988 -0.977185,-0.0988 h -3.124594 c -0.575682,0 -1.041555,0.46581 -1.041555,1.04155 0,0.57568 0.465873,1.04155 1.041555,1.04155 h 3.124594 c 2.29771,0 4.166149,1.86844 4.166149,4.16615 0,2.29771 -1.868439,4.16615 -4.166087,4.16615 z"
       id="path878"
       style="stroke-width:0.0626762" />
    <path
       id="path947"
       style="fill:#000000;stroke-width:0.0607898"
       d="m 23.305002,62.828957 c -14.2219503,0 -13.3842303,-0.0196 -14.0711923,0.32848 -0.676126,0.34261 -1.244397,1.09119 -1.402791,1.84764 -0.09642,0.4609 -0.09565,26.31727 8.98e-4,26.77192 0.211415,0.99563 0.997959,1.80872 2.01448,2.08254 h 1.8e-4 c 0.2695073,0.0724 2.3490243,0.0863 13.4305893,0.0898 0.178872,5e-5 0.284552,-2.2e-4 0.459395,-1.8e-4 0.420687,-0.5407 0.947758,-1.21519 1.420211,-1.82124 -0.701285,-4e-5 -1.048312,4.4e-4 -1.843688,3.6e-4 -14.4230313,-0.002 -13.261952,0.0315 -13.5606133,-0.3872 l -0.134874,-0.18893 -0.01544,-13.09026 c -0.0173,-14.51042 -0.0492,-13.34232 0.372654,-13.64323 l 0.1900073,-0.13559 h 13.161016 13.161022 l 0.190008,0.13559 c 0.405528,0.28926 0.38921,-0.6331 0.387559,12.24367 0.674973,-0.83177 1.285674,-1.57523 1.824831,-2.22155 -0.0073,-5.1959 -0.03011,-9.64849 -0.06986,-9.8357 -0.217815,-1.02576 -1.086467,-1.89493 -2.107689,-2.10877 -0.230211,-0.0482 -4.056089,-0.0673 -13.406702,-0.0673 z m -0.06663,3.77736 c -2.823661,0.0145 -5.644091,0.71082 -8.211113,2.08775 -0.861679,0.4622 -2.236905,1.38241 -2.392342,1.6007 -0.161462,0.22699 -0.212677,0.45155 -0.162889,0.71693 0.02994,0.15961 0.689029,1.08039 2.447116,3.41889 1.323414,1.76032 2.477525,3.27923 2.564571,3.37525 0.08705,0.096 0.240204,0.21273 0.340505,0.25933 0.313209,0.14549 0.632825,0.0705 1.130351,-0.26526 1.351566,-0.91203 2.777525,-1.35358 4.371262,-1.35358 1.606902,0 3.058044,0.44888 4.36839,1.35125 0.413566,0.28479 0.49882,0.31979 0.779069,0.31985 0.222225,7e-5 0.365133,-0.0367 0.486334,-0.12536 0.236207,-0.17281 5.107508,-6.63369 5.192716,-6.88716 0.08719,-0.25938 0.03781,-0.56658 -0.128588,-0.80026 -0.169268,-0.23772 -1.659229,-1.22634 -2.554871,-1.69517 -2.579903,-1.35045 -5.406849,-2.01769 -8.230511,-2.00316 z m 0.165584,1.84297 c 0.867867,0.006 1.740078,0.0547 2.292669,0.14457 0.969427,0.15769 2.217188,0.47689 3.032406,0.77566 1.051424,0.38533 3.228879,1.51951 3.228879,1.68187 0,0.0573 -3.636355,4.90806 -3.679296,4.90806 -0.01695,0 -0.324482,-0.14725 -0.683346,-0.32721 -0.358861,-0.17996 -0.905639,-0.41182 -1.214938,-0.51543 -0.603266,-0.20208 -1.647379,-0.43389 -1.954677,-0.43389 h -0.188032 v -1.50552 c 0,-1.65337 -0.02312,-1.77441 -0.390612,-2.04878 -0.231654,-0.17296 -0.810876,-0.17296 -1.04253,0 -0.367487,0.27437 -0.390612,0.39541 -0.390612,2.04878 v 1.50552 h -0.188033 c -0.282772,0 -1.311755,0.22134 -1.854644,0.39887 -0.263998,0.0863 -0.81443,0.31918 -1.223199,0.5174 -0.408769,0.19823 -0.757377,0.36026 -0.774579,0.36026 -0.04493,0 -3.679834,-4.85168 -3.679834,-4.91165 0,-0.0819 1.193629,-0.77421 1.945337,-1.12838 1.375146,-0.64789 2.909477,-1.11022 4.498414,-1.35573 0.535177,-0.0827 1.39876,-0.12014 2.266627,-0.1144 z" />
    <text
       xml:space="preserve"
       style="font-size:7.05556px;line-height:1.25;font-family:sans-serif;-inkscape-font-specification:'sans-serif, Normal';word-spacing:0px;stroke-width:0.264583;fill:#fca444;fill-opacity:1;"
       x="52.056202"
       y="89.200989"
       id="text1006"><tspan
         sodipodi:role="line"
         id="tspan1004"
         x="52.056202"
         y="89.200989"
         style="font-style:normal;font-variant:normal;font-weight:normal;font-stretch:normal;font-size:25.4px;font-family:Arial;-inkscape-font-specification:'Arial, Normal';font-variant-ligatures:normal;font-variant-caps:normal;font-variant-numeric:normal;font-variant-east-asian:normal;stroke-width:0.264583;fill:#fca444;fill-opacity:1;">| Stool Scale</tspan></text>
  </g>
</svg>
